<svg width="1920" height="1080" viewBox="0 0 1920 1080" xmlns="http://www.w3.org/2000/svg"><rect width="1920" height="1080" fill="#ffffff"/><path d="M1920,1080C1640.5,1140.1666666666667,280.6666666666667,1091.8333333333333,0,1080C-280.6666666666667,1068.1666666666667,157.5,1060,236,1009C314.5,958,391.8333333333333,806,471,774C550.1666666666666,742,630.5,779.1666666666666,711,817C791.5,854.8333333333334,872.8333333333334,1008.1666666666666,954,1001C1035.1666666666667,993.8333333333334,1118.8333333333333,789.5,1198,774C1277.1666666666667,758.5,1349.1666666666667,917.1666666666666,1429,908C1508.8333333333333,898.8333333333334,1595.1666666666667,690.3333333333334,1677,719C1758.8333333333333,747.6666666666666,2199.5,1019.8333333333334,1920,1080C1640.5,1140.1666666666667,280.6666666666667,1091.8333333333333,0,1080" fill="#1b1c1d"/></svg>